<svg width="538" height="466" viewBox="0 0 538 466" fill="none" xmlns="http://www.w3.org/2000/svg">
<g clip-path="url(#clip0_610_471)">
<path d="M0 233L134.5 0.0391846H403.5L538 233L403.5 465.961H134.5L0 233Z" fill="white"/>
<g clip-path="url(#clip1_610_471)">
<path fill-rule="evenodd" clip-rule="evenodd" d="M269 324.4C368.4 324.4 449 283.6 449 233.2C449 182.8 368.4 142 269 142C169.6 142 89 182.8 89 233.2C89 283.6 169.6 324.4 269 324.4Z" fill="#777BB3"/>
<path fill-rule="evenodd" clip-rule="evenodd" d="M191.2 205.2C199.4 205.2 204.8 206.7 207.5 209.7C210.2 212.7 210.9 217.9 209.5 225.2C208 232.8 205.2 238.3 200.9 241.6C196.6 244.9 190.2 246.5 181.5 246.5H168.4L176.4 205.2H191.2ZM138.7 288.4H160.2L165.3 262.1H183.7C190.5 262.3 197.2 261.4 203.7 259.5C209 257.7 213.9 254.8 218 250.9C225.1 244.6 229.8 236 231.5 226.7C233.8 215 232.1 205.9 226.4 199.3C220.7 192.7 211.6 189.5 199.2 189.5H157.9L138.7 288.4Z" fill="white"/>
<path fill-rule="evenodd" clip-rule="evenodd" d="M247.5 163.4H268.8L263.7 189.7H282.7C294.7 189.7 303 191.8 307.5 196C312 200.2 313.3 206.9 311.5 216.3L302.6 262.2H280.9L289.4 218.5C290.4 213.5 290 210.1 288.3 208.3C286.6 206.5 283 205.6 277.6 205.6H260.6L249.6 262.2H228.2L247.5 163.4Z" fill="white"/>
<path fill-rule="evenodd" clip-rule="evenodd" d="M359 205.2C367.2 205.2 372.6 206.7 375.4 209.7C378.2 212.7 378.8 217.9 377.4 225.2C375.9 232.8 373 238.3 368.8 241.6C364.6 244.9 358.1 246.5 349.4 246.5H336.3L344.3 205.2H359ZM306.6 288.4H328.1L333.2 262.1H351.6C358.4 262.3 365.1 261.4 371.6 259.5C376.9 257.7 381.8 254.8 385.9 250.9C393 244.6 397.7 236.1 399.4 226.7C401.7 215 400 205.9 394.3 199.3C388.6 192.7 379.5 189.5 367.1 189.5H325.8L306.6 288.4Z" fill="white"/>
</g>
</g>
<defs>
<clipPath id="clip0_610_471">
<rect width="538" height="466" fill="white"/>
</clipPath>
<clipPath id="clip1_610_471">
<rect width="360" height="182.4" fill="white" transform="translate(89 142)"/>
</clipPath>
</defs>
</svg>
